<svg width="64" height="64" viewBox="0 0 64 64" fill="none" xmlns="http://www.w3.org/2000/svg">
  <path d="M32 6C46.3594 6 58 17.6406 58 32C58 46.3594 46.3594 58 32 58C17.6406 58 6 46.3594 6 32C6 17.6406 17.6406 6 32 6ZM32 12C25.6352 12 19.9443 14.8789 16.1436 19.3994H32C38.957 19.3994 44.6006 25.043 44.6006 32C44.6006 38.957 38.957 44.6006 32 44.6006C27.0054 44.6006 22.6899 41.6944 20.6406 37.4814L14.709 27.209C12.9897 30.126 12 33.5274 12 37.1592C14.1737 45.5086 22.0253 52 32 52C43.0457 52 52 43.0457 52 32C52 27.8861 50.7569 24.0621 48.625 20.8828H35.8184L41.333 30.4326C41.542 30.9353 41.6572 31.4865 41.6572 32.0645C41.6572 34.4562 39.8781 36.5267 37.5342 36.8926L25.4707 36.9189C24.7138 36.8194 24.0306 36.4947 23.4824 36.0156C22.1642 34.8604 21.7734 33.0055 22.4658 31.4414L28.6309 20.8379H15.1348C17.8617 15.5544 24.1044 12 32 12Z" fill="#000000"/>
</svg>