<svg width="64" height="64" viewBox="0 0 64 64" fill="none" xmlns="http://www.w3.org/2000/svg">
  <path d="M24.5 8C29.1944 8 33 11.8056 33 16.5C33 17.3956 32.8617 18.259 32.6045 19.0703H42.5C44.9853 19.0703 47 21.085 47 23.5703V31.3984C47.8113 31.1412 48.6748 31.0029 49.5703 31.0029C54.2647 31.0029 58.0703 34.8085 58.0703 39.5029C58.0703 44.1973 54.2647 48.0029 49.5703 48.0029C48.6748 48.0029 47.8113 47.8647 47 47.6074V55.4297C47 57.915 44.9853 59.9297 42.5 59.9297H34.6719C34.9291 59.1184 35.0674 58.255 35.0674 57.3594C35.0674 52.665 31.2618 48.8594 26.5674 48.8594C21.873 48.8594 18.0674 52.665 18.0674 57.3594C18.0674 58.255 18.2057 59.1184 18.4629 59.9297H10.5C8.01472 59.9297 6 57.915 6 55.4297V47.4668C6.81128 47.7241 7.67475 47.8623 8.57031 47.8623C13.2647 47.8623 17.0703 44.0568 17.0703 39.3623C17.0703 34.6679 13.2647 30.8623 8.57031 30.8623C7.67475 30.8623 6.81128 31.0006 6 31.2578V23.5703C6 21.085 8.01472 19.0703 10.5 19.0703H18.4629C18.2057 18.259 18.0674 17.3956 18.0674 16.5C18.0674 11.8056 21.873 8 26.5674 8H24.5Z" fill="#000000"/>
</svg>