<svg xmlns="http://www.w3.org/2000/svg" viewBox="0 0 120 90" width="120" height="90"><defs><style>.s{fill:none;stroke:#6495ED;stroke-width:2.5;stroke-linecap:round;stroke-linejoin:round}.d{fill:#6495ED}.p{fill:none;stroke:#CCCCFF;stroke-width:2.5;stroke-linejoin:round}</style><mask id="m"><rect width="120" height="90" fill="white"/><circle cx="32" cy="28" r="4" fill="black"/><circle cx="20" cy="52" r="4" fill="black"/><circle cx="44" cy="52" r="4" fill="black"/><polygon points="88,14 95,21 88,28 81,21" fill="black"/><polygon points="100,52 107,59 100,66 93,59" fill="black"/><polygon points="72,52 79,59 72,66 65,59" fill="black"/></mask></defs><path class="s" d="M 8,66 Q 2,66 2,57 Q 0,45 12,42 Q 6,29 18,25 Q 24,13 36,17 Q 42,9 54,15 Q 62,15 64,25 Q 70,33 62,43 Q 65,59 51,63 Q 38,70 24,67 Q 10,70 8,66 Z"/><g class="s" mask="url(#m)"><line x1="32" y1="28" x2="20" y2="52"/><line x1="20" y1="52" x2="44" y2="52"/><line x1="32" y1="28" x2="88" y2="21"/><line x1="20" y1="52" x2="88" y2="21"/><line x1="44" y1="52" x2="88" y2="21"/><line x1="44" y1="52" x2="100" y2="59"/><line x1="88" y1="21" x2="100" y2="59"/><line x1="100" y1="59" x2="72" y2="59"/></g><circle class="d" cx="32" cy="28" r="4"/><circle class="d" cx="20" cy="52" r="4"/><circle class="d" cx="44" cy="52" r="4"/><polygon class="p" points="88,14 95,21 88,28 81,21"/><polygon class="p" points="100,52 107,59 100,66 93,59"/><polygon class="p" points="72,52 79,59 72,66 65,59"/></svg>